<svg width="881" height="935" viewBox="0 0 881 935" fill="none" xmlns="http://www.w3.org/2000/svg">
<path d="M791.175 639.986C815.426 646.105 821.982 677.47 802.21 692.789L564.5 876.975C545.374 891.795 517.474 879.039 516.169 854.879L509.722 735.492C509.191 725.659 513.52 716.191 521.304 710.16L644.364 614.808C651.654 609.16 661.136 607.178 670.077 609.434L791.175 639.986Z" fill="black" fill-opacity="0.8"/>
<path fill-rule="evenodd" clip-rule="evenodd" d="M408.554 23.7143C398.405 10.6172 379.562 8.22661 366.464 18.3747L23.7143 283.95C10.6172 294.098 8.22658 312.942 18.3747 326.039L359.531 766.334C369.679 779.431 388.523 781.822 401.62 771.673L744.37 506.098C757.467 495.95 759.858 477.106 749.71 464.009L408.554 23.7143ZM284.21 182.103C278.061 174.275 266.73 172.914 258.902 179.063C251.074 185.212 249.713 196.543 255.862 204.371L529.378 552.567C535.528 560.395 546.858 561.756 554.686 555.607C562.514 549.457 563.875 538.127 557.726 530.299L284.21 182.103Z" fill="black" fill-opacity="0.8"/>
</svg>
