<svg width="4161" height="3264" viewBox="0 0 4161 3264" fill="none" xmlns="http://www.w3.org/2000/svg">
<mask id="path-1-inside-1_34_925" fill="white">
<path d="M86.5684 1341.83H4160.21V3244C4160.21 3255.05 4151.26 3264 4140.21 3264H106.568C95.5228 3264 86.5684 3255.05 86.5684 3244V1341.83Z"/>
</mask>
<path d="M86.5684 1341.83H4160.21V3244C4160.21 3255.05 4151.26 3264 4140.21 3264H106.568C95.5228 3264 86.5684 3255.05 86.5684 3244V1341.83Z" stroke="black" stroke-opacity="0.83" stroke-width="200" mask="url(#path-1-inside-1_34_925)"/>
<path fill-rule="evenodd" clip-rule="evenodd" d="M1409.64 464.708L1069.98 525.823L603.692 1166.64L943.347 1105.53L1409.64 464.708ZM1269.08 1046.92L1634.33 981.197L2100.62 340.378L1735.37 406.099L1269.08 1046.92ZM2325.31 856.869L1960.06 922.587L2426.35 281.769L2791.59 216.051L2325.31 856.869ZM2651.04 798.259L3041.88 727.934L3508.17 87.1161L3117.33 157.441L2651.04 798.259ZM4114.66 534.908L3367.61 669.325L3833.9 28.5069L3972.65 3.54183C3983.52 1.58578 3994.33 8.72905 3996.79 19.4968L4114.66 534.908ZM744.249 584.432L19.6839 714.804C8.81278 716.76 1.99616 727.074 4.45855 737.842L122.324 1253.25L277.96 1225.25L744.249 584.432Z" fill="black" fill-opacity="0.83"/>
</svg>
