<svg width="191" height="501" viewBox="0 0 191 501" fill="none" xmlns="http://www.w3.org/2000/svg">
<path fill-rule="evenodd" clip-rule="evenodd" d="M111.117 345.786C116.234 341.513 119.489 335.086 119.489 327.898C119.489 315.032 109.06 304.603 96.1941 304.603C83.3285 304.603 72.8989 315.032 72.8989 327.898C72.8989 334.717 75.8289 340.852 80.4987 345.112C80.1614 346.053 79.9609 347.061 79.9215 348.112L76.2859 445.112C76.1401 449.003 73.749 452.456 70.1577 453.96L6.14795 480.783C-3.93687 485.009 -0.894766 500.035 10.0396 500.006L176.514 499.558C187.262 499.53 190.402 484.881 180.611 480.448L122.205 454.009C118.792 452.464 116.529 449.14 116.342 445.398L111.474 347.987C111.436 347.227 111.314 346.491 111.117 345.786Z" fill="black" fill-opacity="0.83"/>
<path d="M9.16945 66.1357C16.8416 28.4013 50.2574 0 90.3175 0H108.061C148.121 0 181.537 28.4013 189.209 66.1357H127.58V77.9457H190.733C190.821 79.5091 190.866 81.0842 190.866 82.6697V95.6606H127.58V107.471H190.866V125.185H127.58V136.995H190.866V154.71H127.58V166.52H190.866V184.235H127.58V196.045H190.866V213.76H127.58V225.57H190.866V243.285H127.58V255.095H190.866V272.81H127.58V284.62H190.027C184.756 321.414 155.217 350.393 118.116 354.876V348.806C123.243 343.497 126.397 336.274 126.397 328.317C126.397 312.011 113.156 298.792 96.8236 298.792C80.4909 298.792 67.2506 312.011 67.2506 328.317C67.2506 334.965 69.4513 341.099 73.1652 346.034V353.704C38.8671 346.491 12.3898 318.086 8.11736 282.848H71.9823V271.038H7.51306V255.095H71.9823V243.285H7.51306V223.799H71.9823V211.989H7.51306V196.045H71.9823V184.235H7.51306V164.749H71.9823V152.939H7.51306V136.995H71.9823V125.185H7.51306V105.699H71.9823V93.8891H7.51306V82.6697C7.51306 81.0842 7.55777 79.5091 7.64599 77.9457H71.9823V66.1357H9.16945Z" fill="black" fill-opacity="0.83"/>
</svg>
