<svg width="1602" height="564" viewBox="0 0 1602 564" fill="none" xmlns="http://www.w3.org/2000/svg">
<path d="M813.539 432.485V555.74C813.539 556.844 814.434 557.74 815.539 557.74H1599C1600.1 557.74 1601 556.844 1601 555.74V432.485C1601 431.38 1600.1 430.485 1599 430.485H1517.46C1516.36 430.485 1515.46 429.59 1515.46 428.485V302.579C1515.46 301.474 1514.57 300.579 1513.46 300.579H1441.99C1440.88 300.579 1439.99 299.684 1439.99 298.579V180.627C1439.99 179.522 1439.09 178.627 1437.99 178.627H1313.68C1312.57 178.627 1311.68 177.731 1311.68 176.627V3C1311.68 1.89543 1310.78 1 1309.68 1H1208.01C1206.91 1 1206.01 1.89543 1206.01 3V176.627C1206.01 177.731 1205.12 178.627 1204.01 178.627H1069.64C1068.54 178.627 1067.64 179.522 1067.64 180.627V298.579C1067.64 299.684 1066.74 300.579 1065.64 300.579H938.816C937.711 300.579 936.816 301.474 936.816 302.579V428.485C936.816 429.59 935.92 430.485 934.816 430.485H815.539C814.434 430.485 813.539 431.38 813.539 432.485Z" fill="black" fill-opacity="0.7" stroke="black" stroke-opacity="0.83"/>
<path d="M1 437.501V560.755C1 561.86 1.89543 562.755 3 562.755H786.461C787.565 562.755 788.461 561.86 788.461 560.755V437.501C788.461 436.396 787.565 435.501 786.461 435.501H704.922C703.817 435.501 702.922 434.605 702.922 433.501V307.595C702.922 306.49 702.027 305.595 700.922 305.595H629.446C628.342 305.595 627.446 304.699 627.446 303.595V185.642C627.446 184.538 626.551 183.642 625.446 183.642H501.138C500.034 183.642 499.138 182.747 499.138 181.642V8.01562C499.138 6.91106 498.243 6.01562 497.138 6.01562H395.473C394.368 6.01562 393.473 6.91105 393.473 8.01562V181.642C393.473 182.747 392.577 183.642 391.473 183.642H257.101C255.996 183.642 255.101 184.538 255.101 185.642V303.595C255.101 304.699 254.205 305.595 253.101 305.595H126.277C125.172 305.595 124.277 306.49 124.277 307.595V433.501C124.277 434.605 123.381 435.501 122.277 435.501H3C1.89543 435.501 1 436.396 1 437.501Z" fill="black" fill-opacity="0.7" stroke="black" stroke-opacity="0.83"/>
<path d="M527.646 437.501V560.755C527.646 561.86 528.541 562.755 529.646 562.755H1313.11C1314.21 562.755 1315.11 561.86 1315.11 560.755V437.501C1315.11 436.396 1314.21 435.501 1313.11 435.501H1231.57C1230.46 435.501 1229.57 434.605 1229.57 433.501V307.595C1229.57 306.49 1228.67 305.595 1227.57 305.595H1156.09C1154.99 305.595 1154.09 304.699 1154.09 303.595V185.642C1154.09 184.538 1153.2 183.642 1152.09 183.642H1027.78C1026.68 183.642 1025.78 182.747 1025.78 181.642V8.01562C1025.78 6.91106 1024.89 6.01562 1023.78 6.01562H922.118C921.014 6.01562 920.118 6.91105 920.118 8.01562V181.642C920.118 182.747 919.223 183.642 918.118 183.642H783.747C782.642 183.642 781.747 184.538 781.747 185.642V303.595C781.747 304.699 780.851 305.595 779.747 305.595H652.923C651.818 305.595 650.923 306.49 650.923 307.595V433.501C650.923 434.605 650.027 435.501 648.923 435.501H529.646C528.541 435.501 527.646 436.396 527.646 437.501Z" fill="black" fill-opacity="0.7" stroke="black" stroke-opacity="0.83"/>
</svg>
